:SAMPLES-PER-SECOND 30
:FULLY-SPECIFIED
:DEGREES
506
root  -28.5668 41.167 -30.3474 -49.0395 -87.649 47.028
RightUpLeg  -0.807784 -8.81222 -8.27713
RightLeg  9.41803 1.79022 1.48261
RightFoot  -6.52249 -0.128574 1.85912
RightToes  0.000482159 0.542163 -0.142577
Spine  4.63962 -0.32648 -5.21111
Spine1  -0.243564 -0.99152 3.43998
HEad  -4.5784 -13.3641 0.612618
LeftShoulder1  0.499476 -1.76003 -1.16006
LeftArm  -21.5302 3.48163 1.44318
LeftForeArm  5.12678 -3.16909 -1.20914
LeftHand  -0.25398 0.0180481 5.50724
RightShoulder  0.429257 -0.130576 4.8888
RightArm  -25.3118 3.28131 -1.33449
RightForeArm  -9.77302 3.66583 3.13327
RightHand  -3.08089 9.12449 -24.7045
LeftUpLeg  -1.07738 2.63283 -2.68597
LeftLeg  1.41929 8.84672 -5.3217
LeftFoot  -1.29608 -0.211031 2.46431
LeftToes  1.06247e-005 4.65855e-005 -8.18501e-006
507
root  -28.5662 41.1657 -30.2877 -47.8397 -87.6934 45.8792
RightUpLeg  -0.841758 -8.76942 -8.27222
RightLeg  9.38452 1.72508 1.43997
RightFoot  -6.57351 -0.135229 1.97314
RightToes  0.000482159 0.542163 -0.142577
Spine  4.59071 -0.326822 -5.14875
Spine1  -0.374569 -0.977924 3.39638
HEad  -4.99994 -13.4312 0.799132
LeftShoulder1  0.531547 -1.84474 -1.66782
LeftArm  -21.1007 3.41675 1.22454
LeftForeArm  5.18678 -2.57879 -1.29654
LeftHand  -0.25398 0.0180481 5.50724
RightShoulder  0.441721 -0.0111183 4.79952
RightArm  -24.904 3.4276 -0.891161
RightForeArm  -6.9885 1.17673 2.66258
RightHand  -2.77187 8.56191 -23.1956
LeftUpLeg  -1.04882 2.75496 -2.62523
LeftLeg  1.29334 8.68723 -5.48509
LeftFoot  -1.31654 -0.210608 2.46349
LeftToes  1.06247e-005 4.65855e-005 -8.18501e-006
508
root  -28.5659 41.1681 -30.2371 -46.1432 -87.7201 44.2217
RightUpLeg  -0.829789 -8.74101 -8.26502
RightLeg  9.30723 1.66649 1.42515
RightFoot  -6.56124 -0.130711 1.9119
RightToes  0.000482159 0.542163 -0.142577
Spine  4.55285 -0.323622 -5.04412
Spine1  -0.489188 -0.953518 3.31211
HEad  -5.45027 -13.3832 0.929666
LeftShoulder1  0.579407 -1.97548 -2.38681
LeftArm  -20.6744 3.26643 1.12576
LeftForeArm  4.65087 -1.75218 -1.3796
LeftHand  -0.25398 0.0180481 5.50724
RightShoulder  0.45541 0.0606088 4.94672
RightArm  -24.5082 3.38214 -0.552269
RightForeArm  -4.5078 -0.524878 2.32744
RightHand  -2.5752 8.21576 -22.1424
LeftUpLeg  -0.981696 2.86231 -2.57091
LeftLeg  1.09948 8.54736 -5.63895
LeftFoot  -1.28113 -0.215289 2.54727
LeftToes  1.06247e-005 4.65855e-005 -8.18501e-006
509
root  -28.5662 41.1723 -30.1959 -44.5731 -87.7155 42.7061
RightUpLeg  -0.85962 -8.65528 -8.22879
RightLeg  9.26545 1.53153 1.35486
RightFoot  -6.54329 -0.119945 1.75211
RightToes  0.000482159 0.542163 -0.142577
Spine  4.45027 -0.316387 -4.88309
Spine1  -0.515819 -0.894842 3.0759
HEad  -5.82384 -13.3979 1.14495
LeftShoulder1  0.621839 -2.14774 -2.87418
LeftArm  -20.2908 3.11811 0.84592
LeftForeArm  3.82585 -0.730278 -1.43459
LeftHand  -0.25398 0.0180481 5.50724
RightShoulder  0.46602 0.0423754 5.35827
RightArm  -24.115 3.15903 -0.387807
RightForeArm  -3.17418 -1.3473 2.2012
RightHand  -2.46092 7.99247 -21.5344
LeftUpLeg  -0.957657 2.87533 -2.57751
LeftLeg  0.930526 8.50138 -5.70755
LeftFoot  -1.212 -0.218065 2.60382
LeftToes  1.06247e-005 4.65855e-005 -8.18501e-006
510
root  -28.5679 41.1743 -30.1654 -42.0132 -87.6544 40.2212
RightUpLeg  -0.925656 -8.56062 -8.17233
RightLeg  9.28176 1.30886 1.25735
RightFoot  -6.61251 -0.114176 1.66856
RightToes  0.000482159 0.542163 -0.142577
Spine  4.32968 -0.360548 -4.86984
Spine1  -0.524098 -0.913441 2.96751
HEad  -6.09008 -13.4535 1.40341
LeftShoulder1  0.636487 -2.22127 -3.00359
LeftArm  -19.8778 3.18363 0.305139
LeftForeArm  3.19832 0.162794 -1.49393
LeftHand  -0.25398 0.0180481 5.50724
RightShoulder  0.478968 0.0289502 5.82555
RightArm  -23.7686 2.87535 -0.32622
RightForeArm  -2.43628 -1.52452 2.20475
RightHand  -2.34716 7.71923 -20.986
LeftUpLeg  -1.01795 2.82009 -2.61221
LeftLeg  0.887127 8.4416 -5.68614
LeftFoot  -1.20344 -0.214736 2.56506
LeftToes  1.06247e-005 4.65855e-005 -8.18501e-006
511
root  -28.5723 41.1748 -30.1453 -39.4816 -87.5799 37.7518
RightUpLeg  -0.972567 -8.52597 -8.14133
RightLeg  9.32171 1.14698 1.20246
RightFoot  -6.75476 -0.116902 1.71585
RightToes  0.000482159 0.542163 -0.142577
Spine  4.24561 -0.446135 -5.08588
Spine1  -0.550303 -1.03176 3.14645
HEad  -6.31053 -13.3835 1.50775
LeftShoulder1  0.632215 -2.15693 -3.05988
LeftArm  -19.4556 3.51725 -0.204055
LeftForeArm  2.76954 0.666288 -1.57066
LeftHand  -0.25398 0.0180481 5.50724
RightShoulder  0.498093 0.100418 6.12104
RightArm  -23.4234 2.66828 -0.295024
RightForeArm  -1.69081 -1.46635 2.25516
RightHand  -2.23137 7.41687 -20.4409
LeftUpLeg  -1.09711 2.77274 -2.63506
LeftLeg  0.929219 8.35305 -5.6426
LeftFoot  -1.26823 -0.208733 2.48157
LeftToes  1.06247e-005 4.65855e-005 -8.18501e-006
512
root  -28.576 41.1747 -30.1324 -39.2109 -87.5726 37.5022
RightUpLeg  -0.996879 -8.50775 -8.14155
RightLeg  9.35538 1.12626 1.16901
RightFoot  -6.86358 -0.121251 1.78765
RightToes  0.000482159 0.542163 -0.142577
Spine  4.20972 -0.495097 -5.3341
Spine1  -0.574772 -1.12329 3.368
HEad  -6.45641 -13.1882 1.37755
LeftShoulder1  0.638673 -2.11604 -3.27896
LeftArm  -19.1728 3.98297 -0.3937
LeftForeArm  2.54182 0.80257 -1.60776
LeftHand  -0.25398 0.0180481 5.50724
RightShoulder  0.516661 0.218863 6.1887
RightArm  -23.0499 2.5271 -0.244814
RightForeArm  -1.02955 -1.39766 2.32767
RightHand  -2.14083 7.15136 -20.039
LeftUpLeg  -1.10895 2.76148 -2.65093
LeftLeg  0.927611 8.3459 -5.63778
LeftFoot  -1.32414 -0.204331 2.41742
LeftToes  1.06247e-005 4.65855e-005 -8.18501e-006
513
root  -28.5738 41.1743 -30.1233 -40.8295 -87.6323 39.118
RightUpLeg  -1.02995 -8.42902 -8.12355
RightLeg  9.37296 1.13317 1.09905
RightFoot  -6.89214 -0.12158 1.79673
RightToes  0.000482159 0.542163 -0.142577
Spine  4.21387 -0.481477 -5.39679
Spine1  -0.630355 -1.10472 3.34819
HEad  -6.36353 -13.0797 1.16778
LeftShoulder1  0.663257 -2.2123 -3.54935
LeftArm  -19.1013 4.42434 -0.32855
LeftForeArm  2.65968 0.735684 -1.5679
LeftHand  -0.25398 0.0180481 5.50724
RightShoulder  0.525105 0.297004 6.11848
RightArm  -22.826 2.33564 -0.135379
RightForeArm  -0.672843 -1.25768 2.3754
RightHand  -2.06197 6.88324 -19.7296
LeftUpLeg  -1.07082 2.75704 -2.67011
LeftLeg  0.860458 8.43758 -5.65523
LeftFoot  -1.3332 -0.201524 2.37721
LeftToes  1.06247e-005 4.65855e-005 -8.18501e-006
514
root  -28.57 41.1743 -30.1181 -41.9608 -87.6858 40.2511
RightUpLeg  -1.06347 -8.32443 -8.07178
RightLeg  9.37402 1.07984 1.01913
RightFoot  -6.89752 -0.119667 1.77102
RightToes  0.000482159 0.542163 -0.142577
Spine  4.24396 -0.453968 -5.28038
Spine1  -0.764458 -1.02603 3.09647
HEad  -5.9922 -13.208 1.08665
LeftShoulder1  0.68392 -2.34717 -3.6486
LeftArm  -19.0914 4.74897 -0.252983
LeftForeArm  2.9377 0.59355 -1.52642
LeftHand  -0.25398 0.0180481 5.50724
RightShoulder  0.524737 0.311575 6.03756
RightArm  -22.924 2.07417 0.00184446
RightForeArm  -0.563351 -0.991424 2.3444
RightHand  -1.97683 6.57047 -19.4161
LeftUpLeg  -1.05641 2.74228 -2.67895
LeftLeg  0.824522 8.51894 -5.65119
LeftFoot  -1.34262 -0.198707 2.33719
LeftToes  1.06247e-005 4.65855e-005 -8.18501e-006
515
root  -28.5716 41.1743 -30.1196 -42.1565 -87.7145 40.4458
RightUpLeg  -1.06943 -8.28477 -8.03437
RightLeg  9.37617 1.05855 0.999255
RightFoot  -6.92417 -0.117977 1.74903
RightToes  0.000482159 0.542163 -0.142577
Spine  4.26981 -0.439029 -5.14125
Spine1  -0.910022 -0.951724 2.79698
HEad  -5.58237 -13.4568 1.15848
LeftShoulder1  0.684057 -2.37939 -3.57929
LeftArm  -18.9673 4.91808 -0.233505
LeftForeArm  3.01276 0.446747 -1.57242
LeftHand  -0.25398 0.0180481 5.50724
RightShoulder  0.523974 0.306329 6.00534
RightArm  -23.1776 1.88091 0.0755771
RightForeArm  -0.532073 -0.746291 2.27185
RightHand  -1.90993 6.30681 -19.1859
LeftUpLeg  -1.06474 2.74172 -2.66577
LeftLeg  0.853299 8.54592 -5.63619
LeftFoot  -1.37761 -0.196142 2.29995
LeftToes  1.06247e-005 4.65855e-005 -8.18501e-006
516
root  -28.5772 41.1743 -30.1292 -43.4525 -87.7673 41.7217
RightUpLeg  -1.06267 -8.31285 -8.03795
RightLeg  9.40135 1.16328 1.03697
RightFoot  -6.94249 -0.115471 1.715
RightToes  0.000482159 0.542163 -0.142577
Spine  4.25527 -0.411466 -5.08225
Spine1  -0.941795 -0.880574 2.56815
HEad  -5.41135 -13.5666 1.24978
LeftShoulder1  0.672648 -2.31023 -3.5132
LeftArm  -18.7757 4.96512 -0.163076
LeftForeArm  2.92782 0.314038 -1.6708
LeftHand  -0.25398 0.0180481 5.50724
RightShoulder  0.522727 0.318177 5.99249
RightArm  -23.2215 1.88359 0.039317
RightForeArm  -0.468091 -0.676621 2.26333
RightHand  -1.89945 6.26464 -19.1497
LeftUpLeg  -1.04172 2.76653 -2.6452
LeftLeg  0.870167 8.60276 -5.64036
LeftFoot  -1.39272 -0.196543 2.30617
LeftToes  1.06247e-005 4.65855e-005 -8.18501e-006
517
root  -28.5823 41.1743 -30.1455 -46.5226 -87.8581 44.7649
RightUpLeg  -1.07175 -8.341 -8.04884
RightLeg  9.43885 1.32652 1.07248
RightFoot  -6.93028 -0.112306 1.67166
RightToes  0.000482159 0.542163 -0.142577
Spine  4.19196 -0.358622 -5.0875
Spine1  -0.846512 -0.797509 2.40568
HEad  -5.52484 -13.4377 1.29453
LeftShoulder1  0.66339 -2.2314 -3.50735
LeftArm  -18.6705 4.97075 -0.0173593
LeftForeArm  2.97111 0.185932 -1.72988
LeftHand  -0.25398 0.0180481 5.50724
RightShoulder  0.521381 0.335665 5.96658
RightArm  -22.9584 2.02897 -0.0635407
RightForeArm  -0.375321 -0.705665 2.36089
RightHand  -1.94342 6.47879 -19.2406
LeftUpLeg  -0.991062 2.77661 -2.64429
LeftLeg  0.839054 8.75597 -5.63333
LeftFoot  -1.35918 -0.201301 2.37597
LeftToes  1.06247e-005 4.65855e-005 -8.18501e-006
518
root  -28.5873 41.1743 -30.1673 -49.4829 -87.9347 47.7127
RightUpLeg  -1.08545 -8.34685 -8.0382
RightLeg  9.45737 1.43891 1.08904
RightFoot  -6.91837 -0.110796 1.65337
RightToes  0.000482159 0.542163 -0.142577
Spine  4.10753 -0.302632 -5.10406
Spine1  -0.719887 -0.714223 2.26273
HEad  -5.79788 -13.2211 1.3529
LeftShoulder1  0.659235 -2.20227 -3.47444
LeftArm  -18.6588 4.96664 0.107075
LeftForeArm  3.12772 0.094844 -1.74011
LeftHand  -0.25398 0.0180481 5.50724
RightShoulder  0.520332 0.33069 5.92799
RightArm  -22.685 2.13374 -0.132303
RightForeArm  -0.345265 -0.647833 2.47863
RightHand  -1.99575 6.7521 -19.3169
LeftUpLeg  -0.971835 2.73323 -2.67106
LeftLeg  0.829821 8.96217 -5.56042
LeftFoot  -1.31915 -0.207085 2.45608
LeftToes  1.06247e-005 4.65855e-005 -8.18501e-006
519
root  -28.5935 41.1743 -30.1958 -50.9825 -87.9748 49.2174
RightUpLeg  -1.09286 -8.3616 -8.0123
RightLeg  9.4559 1.50632 1.12091
RightFoot  -6.91229 -0.10994 1.64008
RightToes  0.000482159 0.542163 -0.142577
Spine  4.03657 -0.257699 -5.11152
Spine1  -0.625163 -0.64172 2.12206
HEad  -6.10488 -13.0828 1.43646
LeftShoulder1  0.659235 -2.23018 -3.39658
LeftArm  -18.6673 4.93384 0.169815
LeftForeArm  3.21086 0.0910538 -1.7376
LeftHand  -0.25398 0.0180481 5.50724
RightShoulder  0.519665 0.318684 5.86287
RightArm  -22.7109 2.09399 -0.0861059
RightForeArm  -0.381023 -0.485642 2.49694
RightHand  -2.01258 6.8499 -19.3257
LeftUpLeg  -1.01566 2.66138 -2.69909
LeftLeg  0.902133 9.14989 -5.43638
LeftFoot  -1.30898 -0.21168 2.49524
LeftToes  1.06247e-005 4.65855e-005 -8.18501e-006
